<svg id="Capa_1" enable-background="new 0 0 512 512" height="512" viewBox="0 0 512 512" width="512" xmlns="http://www.w3.org/2000/svg"><g><path d="m447.355 287.38h-220.495v-5.195c0-58.113 47.11-105.222 105.222-105.222h10.051c58.113 0 105.222 47.11 105.222 105.222z" fill="#fec165"/><g><path d="m415.612 266.871c-3.281 0-6.323-2.109-7.358-5.405-9.122-29.048-35.694-48.565-66.12-48.565h-10.051c-30.426 0-56.998 19.516-66.12 48.565-1.276 4.065-5.603 6.33-9.671 5.049-4.065-1.277-6.325-5.606-5.049-9.671 5.286-16.833 16.029-31.952 30.249-42.57 14.72-10.991 32.214-16.801 50.591-16.801h10.051c18.377 0 35.871 5.81 50.591 16.801 14.22 10.618 24.963 25.736 30.249 42.57 1.277 4.065-.984 8.395-5.049 9.671-.769.242-1.548.356-2.313.356z" fill="#fea613"/></g><g><path d="m297.857 266.871c-.766 0-1.544-.115-2.313-.357-4.065-1.277-6.325-5.606-5.049-9.671 6.083-19.372 23.806-32.387 44.1-32.387h5.026c20.294 0 38.016 13.015 44.1 32.387 1.277 4.064-.983 8.395-5.049 9.671-4.065 1.281-8.395-.983-9.671-5.049-4.054-12.908-15.861-21.581-29.38-21.581h-5.026c-13.52 0-25.327 8.673-29.38 21.581-1.035 3.297-4.078 5.406-7.358 5.406z" fill="#fea613"/></g><path d="m167.147 74.542 324.528-7.132c2.307-.051 4.205 1.806 4.205 4.113v26.464c0 2.272-1.842 4.114-4.114 4.114h-324.316c-7.611 0-13.781-6.17-13.781-13.781-.001-7.493 5.986-13.613 13.478-13.778z" fill="#5a5a5a"/><path d="m167.147 12.809 324.528-7.132c2.307-.051 4.205 1.806 4.205 4.113v26.464c0 2.272-1.842 4.114-4.114 4.114h-324.316c-7.611 0-13.781-6.17-13.781-13.781-.001-7.494 5.986-13.614 13.478-13.778z" fill="#5a5a5a"/><path d="m491.675 67.41-24.953.548v18.366c0 2.272-1.842 4.114-4.114 4.114h-308.76c1.021 6.603 6.713 11.663 13.602 11.663h324.315c2.272 0 4.114-1.842 4.114-4.114v-26.463c0-2.308-1.897-4.165-4.204-4.114z" fill="#444"/><path d="m491.675 5.676-24.953.548v18.366c0 2.273-1.842 4.114-4.114 4.114h-308.76c1.021 6.603 6.713 11.663 13.602 11.663h324.315c2.272 0 4.114-1.842 4.114-4.114v-26.463c0-2.308-1.897-4.165-4.204-4.114z" fill="#444"/><path d="m146.152 252.155v-236.726c0-8.521 6.908-15.429 15.429-15.429 8.521 0 15.429 6.908 15.429 15.429v236.726c0 8.521-6.908 15.429-15.429 15.429-8.521 0-15.429-6.908-15.429-15.429z" fill="#fece85"/><path d="m177.01 252.155v-236.726c0-8.521 6.908-15.429 15.429-15.429 8.521 0 15.429 6.908 15.429 15.429v236.726c0 8.521-6.908 15.429-15.429 15.429-8.521 0-15.429-6.908-15.429-15.429z" fill="#fec165"/><path d="m207.868 252.155v-236.726c0-8.521 6.908-15.429 15.429-15.429 8.521 0 15.429 6.908 15.429 15.429v236.726c0 8.521-6.908 15.429-15.429 15.429-8.521 0-15.429-6.908-15.429-15.429z" fill="#fece85"/><path d="m223.297 0c-3.25 0-6.26 1.01-8.747 2.725 4.034 2.783 6.682 7.432 6.682 12.704v236.726c0 5.272-2.648 9.92-6.682 12.703 2.487 1.716 5.498 2.726 8.747 2.726 8.521 0 15.429-6.908 15.429-15.429v-236.726c0-8.521-6.908-15.429-15.429-15.429z" fill="#fec165"/><path d="m194.41 166.072c7.156 0 11.716 15.861 18.174 17.957 6.692 2.173 19.691-7.902 25.261-3.848 5.626 4.094.039 19.597 4.133 25.223 4.054 5.57 20.544 5.023 22.717 11.715 2.097 6.457-11.498 15.679-11.498 22.835s13.594 16.379 11.498 22.836c-2.173 6.692-18.663 6.145-22.717 11.715-4.094 5.626 1.493 21.128-4.133 25.223-5.57 4.054-18.569-6.021-25.261-3.848-6.457 2.097-11.017 17.957-18.173 17.957s-11.716-15.861-18.174-17.957c-6.692-2.173-19.691 7.902-25.261 3.848-5.626-4.094-.039-19.597-4.133-25.223-4.054-5.57-20.544-5.023-22.717-11.715-2.097-6.457 11.498-15.679 11.498-22.835s-13.594-16.379-11.498-22.836c2.173-6.692 18.663-6.145 22.717-11.715 4.094-5.626-1.493-21.128 4.133-25.223 5.57-4.054 18.569 6.021 25.261 3.848 6.457-2.097 11.017-17.957 18.173-17.957z" fill="#fdd5d5"/><g><path d="m264.695 217.12c-2.173-6.692-18.663-6.145-22.717-11.716-4.094-5.626 1.493-21.128-4.133-25.223-4.556-3.315-14.078 2.816-21.057 3.972 1.411 6.288-1.357 16.824 1.864 21.251 4.054 5.57 20.544 5.024 22.717 11.716 2.097 6.457-11.498 15.679-11.498 22.835s13.594 16.379 11.498 22.836c-2.173 6.692-18.663 6.145-22.717 11.716-3.221 4.426-.453 14.963-1.864 21.25 6.979 1.157 16.501 7.288 21.057 3.972 5.626-4.094.039-19.597 4.133-25.223 4.054-5.57 20.544-5.024 22.717-11.716 2.097-6.457-11.498-15.68-11.498-22.836 0-7.155 13.594-16.377 11.498-22.834z" fill="#f9c6c6"/></g><g><path d="m173.807 280.777c-1.974 0-3.949-.753-5.455-2.259-18.668-18.669-18.668-49.044 0-67.713 24.307-24.304 66.14-7.787 66.14 23.632 0 28.311-31.584 41.831-49.781 23.631-16.813-16.809.305-44.777 10.91-34.176 3.013 3.014 3.013 7.897 0 10.911-3.407 3.406-3.407 8.949 0 12.355 8.601 8.605 23.442 1.667 23.442-12.721 0-17.733-25.219-27.307-39.801-12.721-12.652 12.652-12.652 33.239 0 45.891 3.013 3.014 3.013 7.897 0 10.911-1.507 1.505-3.481 2.259-5.455 2.259z" fill="#f79595"/></g><path d="m34.42 254.897c-14.941-55.76 3.779-109.224 41.812-119.415s80.977 26.75 95.918 82.51c11.294 42.151-9.033 84.383-45.543 95.729-.799.259-1.605.505-2.422.724s-1.638.408-2.46.584c-37.291 8.429-76.01-17.981-87.305-60.132z" fill="#dff6fd"/><ellipse cx="104.945" cy="242.641" fill="#fea613" rx="35.47" ry="39.998" transform="matrix(.966 -.259 .259 .966 -59.224 35.43)"/><path d="m172.149 217.992c-14.941-55.76-57.885-92.701-95.918-82.51-.009.003-.017.006-.026.008 29.833 7.509 58.145 39.372 69.702 82.503 11.294 42.151-9.033 84.382-45.543 95.729-.799.259-1.605.505-2.422.724s-1.638.409-2.46.584c-.327.074-.655.125-.983.193 8.879 1.833 18.093 1.87 27.224-.193.822-.175 1.642-.365 2.46-.584.817-.219 1.623-.465 2.422-.724 36.511-11.348 56.839-53.579 45.544-95.73z" fill="#c8effe"/><path d="m335.077 503.172v-19.663c56.605-21.098 101.027-68.004 118.215-127.215h-427.057c17.484 60.222 62.602 106.497 118.199 127.215v19.663c0 4.875 3.952 8.828 8.828 8.828h172.988c4.875 0 8.827-3.953 8.827-8.828z" fill="#5a5a5a"/><path d="m16.121 290.437v-27.597c0-2.078 1.685-3.763 3.763-3.763h439.743c2.078 0 3.763 1.685 3.763 3.763v27.597z" fill="#5a5a5a"/><path d="m415.387 356.295c-17.188 59.21-61.61 106.117-118.215 127.214v19.664c0 4.875-3.952 8.828-8.828 8.828h37.905c4.875 0 8.828-3.953 8.828-8.828v-19.664c56.605-21.098 101.027-68.004 118.215-127.214z" fill="#444"/><path d="m459.627 259.076h-37.905c2.078 0 3.763 1.685 3.763 3.763v27.598h37.905v-27.597c0-2.079-1.685-3.764-3.763-3.764z" fill="#444"/><path d="m26.235 356.294h427.057c3.108-10.708 5.33-21.817 6.568-33.25l3.53-32.608h-447.269l3.53 32.608c1.237 11.436 3.475 22.54 6.584 33.25z" fill="#e94444"/><path d="m425.485 290.437-3.53 32.607c-1.238 11.433-3.46 22.542-6.568 33.25h37.905c3.108-10.709 5.33-21.817 6.568-33.25l3.53-32.607z" fill="#d83131"/></g></svg>